# AST/ASF file generated using VICON BodyLanguage
# -----------------------------------------------
:version 1.10
:name VICON
:units
  mass 1.0
  length 0.45
  angle deg
:documentation
   .ast/.asf automatically generated from VICON data using
   VICON BodyBuilder and BodyLanguage model FoxedUp or BRILLIANT.MOD
:root
   order TX TY TZ RX RY RZ
   axis XYZ
   position 0 0 0  
   orientation 0 0 0 
:bonedata
  begin
     id 1 
     name lhipjoint
     direction 0.623415 -0.642378 0.445763 
     length 2.49859 
     axis 0 0 0  XYZ
  end
  begin
     id 2 
     name lfemur
     direction 0.34202 -0.939693 0  
     length 6.69689  
     axis 0 0 20  XYZ
    dof rx ry rz
    limits (-160.0 20.0)
           (-70.0 70.0)
           (-60.0 70.0)
  end
  begin
     id 3 
     name ltibia
     direction 0.34202 -0.939693 0   
     length 7.37574   
     axis 0 0 20   XYZ
    dof rx
    limits (-10.0 170.0)
  end
  begin
     id 4 
     name lfoot
     direction 0.084323 -0.231675 0.969132   
     length 2.09111   
     axis -90 7.62852e-016 20   XYZ
    dof rx rz
    limits (-45.0 90.0)
           (-70.0 20.0)
  end
  begin
     id 5 
     name ltoes
     direction 1.5357e-011 -4.21957e-011 1   
     length 1.04989   
     axis -90 7.62852e-016 20   XYZ
    dof rx
    limits (-90.0 20.0)
  end
  begin
     id 6 
     name rhipjoint
     direction -0.605402 -0.653903 0.45376   
     length 2.45455  
     axis 0 0 0  XYZ 
  end
  begin
     id 7 
     name rfemur
     direction -0.34202 -0.939693 0   
     length 6.64523   
     axis 0 0 -20   XYZ
    dof rx ry rz
    limits (-160.0 20.0)
           (-70.0 70.0)
           (-70.0 60.0)
  end
  begin
     id 8 
     name rtibia
     direction -0.34202 -0.939693 0   
     length 7.3339   
     axis 0 0 -20   XYZ
    dof rx
    limits (-10.0 170.0)
 end
 begin
     id 9 
     name rfoot
     direction -0.120854 -0.332043 0.93549   
     length 2.23135  
     axis -90 -7.62852e-016 -20   XYZ
    dof rx rz
    limits (-45.0 90.0)
           (-20.0 70.0)
  end
  begin
     id 10 
     name rtoes
     direction -1.53563e-011 -4.21914e-011 1   
     length 1.10614   
     axis -90 -7.62852e-016 -20   XYZ
    dof rx
    limits (-90.0 20.0)
  end
  begin
     id 11 
     name lowerback
     direction 0.0319682 0.998615 -0.0417941   
     length 2.02718   
     axis 0 0 0   XYZ
    dof rx ry rz
    limits (-20.0 45.0)
           (-30.0 30.0)
           (-30.0 30.0)
  end
  begin
     id 12 
     name upperback
     direction 7.63181e-005 0.995808 0.0914691   
     length 1.97539   
     axis 0 0 0   XYZ
    dof rx ry rz
    limits (-20.0 45.0)
           (-30.0 30.0)
           (-30.0 30.0)
  end
  begin
     id 13 
     name thorax
     direction -0.016423 0.993627 0.111514   
     length 2.00349   
     axis 0 0 0   XYZ
    dof rx ry rz
    limits (-20.0 45.0)
           (-30.0 30.0)
           (-30.0 30.0)
  end
  begin
     id 14 
     name lowerneck
     direction -0.174763 0.981668 -0.0760716   
     length 1.71436   
     axis 0 0 0   XYZ
    dof rx ry rz
    limits (-20.0 45.0)
           (-30.0 30.0)
           (-30.0 30.0)
  end
  begin
     id 15 
     name upperneck
     direction 0.345458 0.934587 -0.0848868   
     length 1.72805   
     axis 0 0 0   XYZ
    dof rx ry rz
    limits (-20.0 45.0)
           (-30.0 30.0)
           (-30.0 30.0)
  end
  begin
     id 16
     name head
     direction 0.13001 0.989848 -0.0574291  
     length 1.767  
     axis 0 0 0   XYZ
    dof rx ry rz
    limits (-20.0 45.0)
           (-30.0 30.0)
           (-30.0 30.0)
  end
  begin
     id 17 
     name lclavicle
     direction 0.952951 0.290122 0.0878234  
     length 3.54654  
     axis 0 0 0   XYZ
    dof ry rz
    limits (-20.0 10.0)
           (0.0 20.0)
  end
  begin
     id 18 
     name lhumerus
     direction 1 -4.48957e-011 -4.56525e-028   
     length 5.19807   
     axis 180 -30 -90   XYZ
    dof rx ry rz
    limits (-60.0 90.0)
           (-90.0 90.0)
           (-90.0 90.0)
  end
  begin
     id 19
     name lradius
     direction 1 -4.48979e-011 -2.0317e-027   
     length 3.0937   
     axis 180 -30 -90   XYZ
    dof rx
    limits (-10.0 170.0)
  end
  begin
     id 20
     name lwrist
     direction 1 -4.48953e-011 -3.05809e-027   
     length 1.54685   
     axis 8.48514e-016 90 90   XYZ
    dof ry
    limits (-180.0 0.0)
 end
  begin
     id 21 
     name lhand
     direction 1 -4.48952e-011 -6.11639e-027   
     length 0.672632   
     axis 3.9013e-015 90 90   XYZ
    dof rx rz
    limits (-90.0 90.0)
           (-45.0 45.0)
  end
  begin
     id 22 
     name lfingers
     direction 1 -4.48925e-011 -1.22426e-026   
     length 0.542293   
     axis 7.80276e-015 90 90   XYZ
    dof rx
    limits (0.0 90.0)
  end
  begin
     id 23
     name lthumb
     direction 0.707107 -6.3486e-011 0.707107   
     length 0.778628   
     axis -90 45 5.37419e-014   XYZ
    dof rx rz
    limits (-45.0 45.0)
           (-45.0 45.0)
  end
  begin
     id 24 
     name rclavicle
     direction -0.960732 0.273675 -0.0457849   
     length 3.52079  
     axis 0 0 0   XYZ 
    dof ry rz
    limits (-10.0 20.0)
           (-20.0 0.0)
  end
  begin
     id 25 
     name rhumerus
     direction -1 -4.48976e-011 -1.63613e-027  
     length 5.45222   
     axis 180 30 90   XYZ
    dof rx ry rz
    limits (-90.0 60.0)
           (-90.0 90.0)
           (-90.0 90.0)
  end
  begin
     id 26 
     name rradius
     direction -1 -4.48957e-011 -7.00033e-028   
     length 3.01284   
     axis 180 30 90   XYZ
    dof rx
    limits (-10.0 170.0)
  end
  begin
     id 27 
     name rwrist
     direction -1 -4.48983e-011 -3.05543e-027   
     length 1.50642   
     axis 8.48514e-016 -90 -90   XYZ
    dof ry
    limits (-180.0 0.0)
  end
  begin
     id 28
     name rhand
     direction -1 -4.48984e-011 -6.11072e-027   
     length 0.622296   
     axis 3.9013e-015 -90 -90   XYZ
    dof rx rz
    limits (-90.0 90.0)
           (-45.0 45.0)
  end
  begin
     id 29
     name rfingers
     direction -1 -4.48865e-011 -1.22637e-026   
     length 0.501711   
     axis 7.80276e-015 -90 -90   XYZ
    dof rx
    limits (0.0 90.0)
  end
  begin
     id 30
     name rthumb
     direction -0.707107 -6.34932e-011 0.707107   
     length 0.72036   
     axis -90 -45 -5.37419e-014   XYZ
    dof rx rz
    limits (-45.0 45.0)
           (-45.0 45.0)
  end
:hierarchy
  begin
    root lhipjoint rhipjoint lowerback
    lhipjoint lfemur
    lfemur ltibia
    ltibia lfoot
    lfoot ltoes
    rhipjoint rfemur
    rfemur rtibia
    rtibia rfoot
    rfoot rtoes
    lowerback upperback
    upperback thorax
    thorax lowerneck lclavicle rclavicle
    lowerneck upperneck
    upperneck head
    lclavicle lhumerus
    lhumerus lradius
    lradius lwrist
    lwrist lhand lthumb
    lhand lfingers
    rclavicle rhumerus
    rhumerus rradius
    rradius rwrist
    rwrist rhand rthumb
    rhand rfingers
  end

#!OML:ASF H:\Not Pregnant\Project 1\Capture day 1\Session 1\non-pregnant.ASF
:FULLY-SPECIFIED
:DEGREES
1
root -3.87815 15.5188 36.2631 179.585 -73.5271 -156.762
lowerback 0.69274 2.15285 1.47919
upperback -6.1976 2.7915 -0.415813
thorax -6.73844 1.22614 -1.43313
lowerneck 8.35241 -8.30915 -27.8178
upperneck -26.1089 -11.6307 46.3761
head -2.71675 -8.89976 26.6507
rclavicle -1.73937e-014 -6.36111e-015
rhumerus -28.2652 16.6724 -100.493
rradius 35.9617
rwrist 22.3033
rhand -8.20195 8.9907
rfingers 7.12502
rthumb 17.7145 -20.2224
lclavicle -1.73937e-014 -6.36111e-015
lhumerus -34.4838 -16.0223 89.5545
lradius 34.704
lwrist 48.4674
lhand 9.00013 -5.87131
lfingers 7.12502
lthumb 34.1774 20.8729
rfemur -37.4649 -1.44855 24.3246
rtibia 54.3757
rfoot -22.2142 -6.85066
rtoes -21.8772
lfemur -50.7214 12.9703 -23.0998
ltibia 44.5941
lfoot -20.1083 -1.47701
ltoes -16.9823
2
root -3.867 15.5183 36.2628 179.654 -73.4543 -156.839
lowerback 0.472821 2.21717 1.5097
upperback -6.23168 2.87031 -0.445733
thorax -6.6422 1.26235 -1.47732
lowerneck 8.29951 -8.35478 -27.8185
upperneck -25.9776 -11.6924 46.3445
head -2.6392 -8.91736 26.54
rclavicle -2.23633e-014 0
rhumerus -28.712 17.4504 -100.842
rradius 36.73
rwrist 21.5364
rhand -8.35389 8.57212
rfingers 7.12502
rthumb 17.5683 -20.6541
lclavicle -2.23633e-014 0
lhumerus -35.022 -17.2941 90.4652
lradius 35.2167
lwrist 48.0235
lhand 4.41105 -9.01191
lfingers 7.12502
lthumb 29.8081 18.6099
rfemur -36.3708 -1.95994 24.4194
rtibia 54.1628
rfoot -22.0371 -7.72173
rtoes -21.6962
lfemur -50.8563 13.5398 -23.3681
ltibia 44.5942
lfoot -20.0775 -2.16114
ltoes -16.3198
3
root -3.85751 15.5223 36.2648 179.84 -73.4127 -157.029
lowerback 0.260799 2.24144 1.50361
upperback -6.29659 2.89543 -0.418554
thorax -6.58994 1.27413 -1.43937
lowerneck 8.35773 -8.34879 -27.9921
upperneck -25.8494 -11.7481 46.3521
head -2.57086 -8.92888 26.5735
rclavicle -8.54774e-015 5.08889e-014
rhumerus -29.2127 18.1121 -101.17
rradius 37.3679
rwrist 21.1306
rhand -8.68627 7.91607
rfingers 7.12502
rthumb 17.2484 -21.3385
lclavicle -8.54774e-015 5.08889e-014
lhumerus -35.5161 -18.0962 91.2702
lradius 35.8728
lwrist 47.1208
lhand 0.839882 -9.84934
lfingers 7.12502
lthumb 26.3946 18.3333
rfemur -35.2381 -2.27605 24.4005
rtibia 53.8164
rfoot -21.7917 -8.63527
rtoes -21.2294
lfemur -50.9293 13.9295 -23.6055
ltibia 44.5321
lfoot -19.994 -2.73802
ltoes -15.4578
4
root -3.84749 15.5243 36.2668 180.071 -73.4655 -157.24
lowerback -0.00375726 2.27727 1.55588
upperback -6.34681 2.93324 -0.47168
thorax -6.4844 1.28757 -1.51526
lowerneck 8.34655 -8.38221 -27.9787
upperneck -25.7361 -11.7997 46.3328
head -2.51392 -8.94706 26.492
rclavicle 1.81888e-014 1.03368e-014
rhumerus -29.5194 18.3298 -101.329
rradius 37.8279
rwrist 20.8577
rhand -8.58734 8.13947
rfingers 7.12502
rthumb 17.3436 -21.1067
lclavicle 1.81888e-014 1.03368e-014
lhumerus -36.0454 -19.2712 92.153
lradius 36.4884
lwrist 45.9786
lhand -3.84983 -11.587
lfingers 7.12502
lthumb 21.8982 17.1938
rfemur -34.1935 -2.8164 24.3801
rtibia 53.4501
rfoot -21.4779 -9.42221
rtoes -20.726
lfemur -51.0499 14.2303 -23.8855
ltibia 44.4867
lfoot -19.9016 -3.2363
ltoes -15.0375
5
root -3.83686 15.5238 36.2687 180.276 -73.4772 -157.436
lowerback -0.240812 2.32256 1.59316
upperback -6.40203 2.98464 -0.503494
thorax -6.40144 1.30888 -1.56239
lowerneck 8.36435 -8.40922 -28.023
upperneck -25.6295 -11.8607 46.3229
head -2.45413 -8.96825 26.4465
rclavicle -2.3556e-014 -1.03368e-014
rhumerus -29.8609 18.6298 -101.487
rradius 38.312
rwrist 20.4957
rhand -8.4135 8.394
rfingers 7.12502
rthumb 17.5109 -20.8373
lclavicle -2.3556e-014 -1.03368e-014
lhumerus -36.4963 -20.1514 92.9053
lradius 37.0465
lwrist 44.9951
lhand -7.73487 -12.7593
lfingers 7.12502
lthumb 18.1639 16.4126
rfemur -33.1043 -3.33553 24.3556
rtibia 53.0262
rfoot -21.1601 -10.192
rtoes -20.1939
lfemur -51.1652 14.5496 -24.1378
ltibia 44.4498
lfoot -19.8012 -3.74314
ltoes -14.4491
6
root -3.82562 15.5227 36.2706 180.471 -73.494 -157.621
lowerback -0.477022 2.37073 1.63562
upperback -6.45677 3.04012 -0.530885
thorax -6.31829 1.33208 -1.6077
lowerneck 8.38486 -8.43293 -28.0661
upperneck -25.5303 -11.9144 46.3047
head -2.40219 -8.98455 26.3989
rclavicle 4.35338e-014 -1.59028e-014
rhumerus -30.1704 18.8708 -101.604
rradius 38.7325
rwrist 20.1932
rhand -8.15457 8.78736
rfingers 7.12502
rthumb 17.7601 -20.4216
lclavicle 4.35338e-014 -1.59028e-014
lhumerus -36.8339 -20.7818 93.4942
lradius 37.5619
lwrist 44.146
lhand -10.9092 -13.53
lfingers 7.12502
lthumb 15.108 15.8986
rfemur -32.0211 -3.86037 24.3227
rtibia 52.5484
rfoot -20.8195 -10.9374
rtoes -19.5493
lfemur -51.2814 14.8067 -24.3591
ltibia 44.4285
lfoot -19.6915 -4.17705
ltoes -13.9321
7
root -3.8134 15.5206 36.2724 180.65 -73.5089 -157.792
lowerback -0.71073 2.42251 1.68331
upperback -6.50905 3.10076 -0.553365
thorax -6.23377 1.35782 -1.65074
lowerneck 8.40251 -8.4532 -28.1045
upperneck -25.4357 -11.9584 46.2749
head -2.35801 -8.99412 26.3439
rclavicle -6.48038e-014 -1.43125e-014
rhumerus -30.4597 19.1172 -101.708
rradius 39.1137
rwrist 19.9287
rhand -7.88839 9.15386
rfingers 7.12502
rthumb 18.0162 -20.0317
lclavicle -6.48038e-014 -1.43125e-014
lhumerus -37.0247 -21.1191 93.874
lradius 38.0197
lwrist 43.5847
lhand -13.1935 -14.0463
lfingers 7.12502
lthumb 12.9067 15.5346
rfemur -30.9484 -4.40379 24.285
rtibia 52.022
rfoot -20.4807 -11.6326
rtoes -18.7552
lfemur -51.4002 15.0068 -24.5454
ltibia 44.4284
lfoot -19.5778 -4.53216
ltoes -13.4977
8
root -3.80017 15.5179 36.2744 180.808 -73.5225 -157.945
lowerback -0.93636 2.47896 1.74887
upperback -6.55884 3.16821 -0.576313
thorax -6.15001 1.38606 -1.7044
lowerneck 8.42433 -8.47059 -28.1341
upperneck -25.3506 -11.9945 46.2369
head -2.32369 -8.99946 26.2851
rclavicle 1.75924e-014 8.74653e-015
rhumerus -30.7261 19.3606 -101.81
rradius 39.4505
rwrist 19.7
rhand -7.63817 9.46681
rfingers 7.12502
rthumb 18.257 -19.6964
lclavicle 1.75924e-014 8.74653e-015
lhumerus -37.068 -21.1858 94.0424
lradius 38.4294
lwrist 43.346
lhand -14.5487 -14.3359
lfingers 7.12502
lthumb 11.6 15.3231
rfemur -29.8818 -4.94822 24.2422
rtibia 51.4383
rfoot -20.15 -12.2972
rtoes -17.8093
lfemur -51.5111 15.138 -24.6901
ltibia 44.4356
lfoot -19.4533 -4.7938
ltoes -13.1711
9
root -3.78578 15.5149 36.2765 180.953 -73.5307 -158.091
lowerback -1.15021 2.53801 1.82164
upperback -6.6063 3.23965 -0.594996
thorax -6.07016 1.4161 -1.7579
lowerneck 8.44876 -8.48391 -28.1564
upperneck -25.2701 -12.0212 46.1881
head -2.2984 -8.99907 26.2201
rclavicle -1.98785e-014 -1.27222e-014
rhumerus -30.9956 19.6912 -101.953
rradius 39.7733
rwrist 19.5113
rhand -7.56398 9.4734
rfingers 7.12502
rthumb 18.3283 -19.6831
lclavicle -1.98785e-014 -1.27222e-014
lhumerus -37.0011 -21.0513 94.0545
lradius 38.8025
lwrist 43.3555
lhand -15.1751 -14.4831
lfingers 7.12502
lthumb 10.9959 15.2089
rfemur -28.8204 -5.47752 24.1929
rtibia 50.799
rfoot -19.8314 -12.9328
rtoes -16.7637
lfemur -51.611 15.2082 -24.796
ltibia 44.4488
lfoot -19.3203 -4.97237
ltoes -12.9248
